<?xml version="1.0"?>
<svg xmlns:rdf="http://www.w3.org/1999/02/22-rdf-syntax-ns#" xmlns="http://www.w3.org/2000/svg" xmlns:cc="http://web.resource.org/cc/" xmlns:xlink="http://www.w3.org/1999/xlink" xmlns:dc="http://purl.org/dc/elements/1.1/" id="svg1" height="80pt" width="80pt">
 <defs id="defs3">
  <linearGradient id="linearGradient11460" y2="1309.1" gradientUnits="userSpaceOnUse" x2="-1316" gradientTransform="matrix(.30427 -.17567 .17567 .30427 258.35 -601.11)" y1="1309.1" x1="-1562">
   <stop id="stop913" stop-color="#b1f3f3" offset="0"/>
   <stop id="stop855" stop-color="#fff" offset=".2832"/>
   <stop id="stop1077" stop-color="#e2ffff" offset=".43083"/>
   <stop id="stop1078" stop-color="#fff" offset=".69532"/>
   <stop id="stop914" stop-color="#bdffff" offset="1"/>
  </linearGradient>
 </defs>
 <path id="path11444" d="m25.322 8.5559l2.058 3.6301-4.008-1.058-0.646 2.439 6.393 1.697 2.025 3.572-5.982-2.213-0.881 2.36 8.794 3.264 1.953 3.449-4.317 2.493 1.263 2.187 4.298-2.482 2.714 4.811 0.671 1.184-2.757 1.592 1.262 2.187 2.739-1.581 1.073 1.903c-0.573 0.331-1.638 0.946-1.759 1.016l1.263 2.187c0.119-0.069 1.176-0.68 1.74-1.005l4.588 8.102-5.249-3.625c0.296-0.437 0.499-0.739 0.705-1.041l-1.36-0.927c-0.203 0.3-0.401 0.602-0.695 1.035l-1.493-1.027 1.153-1.692-1.359-0.927-1.144 1.687-4.32-2.982 1.676-2.477-1.354-0.917-1.672 2.462-2.422-1.67-3.158-6.874-1.488 0.694 2.014 4.365-2.586-1.778-1.302-3.901-1.553 0.516 0.612 1.828-2.084-1.434-0.926 1.359 2.401 1.656-2.37 0.177 0.123 1.64 4.418-0.319 0.184 0.122 2.202 1.53-3.895-0.071-0.029 1.64 6.367 0.114 2.565 1.765-1.564 2.297 1.359 0.927 1.555-2.292 4.32 2.982-0.98 1.441 1.359 0.927 0.971-1.435 1.493 1.027c-0.19 0.28-0.568 0.835-0.61 0.897l1.359 0.927c0.042-0.061 0.414-0.616 0.601-0.892l1.668 1.154 1.832 1.263-7.402-0.063c0-0.995-0.004-1.671-0.004-2.356l-2.523-0.001c0 0.678 0.002 1.348 0.002 2.332l-2.175-0.013 0.002-3.728-2.533 0.004 0.006 3.699-6.886-0.069-0.001-5.337-2.523-0.001 0.005 5.322-3.721-0.032-8.7908-6.728-1.5367 2.015 6.1245 4.68-4.4492-0.043-4.4027-4.266-1.7651 1.818 2.4866 2.418-3.6321-0.033-0.0256 2.525 4.1783 0.035-2.9176 2.939 1.7892 1.782 4.6571-4.692 4.1051 0.039-4.9107 4.077 1.6169 1.945 7.2158-5.992 3.785 0.033 0.192 0.004-0.001 4.983 2.523 0.001 0.003-4.959 6.88 0.059-0.001 3.183 2.524 0.001-0.004-3.168 0.897 0.016 1.284 0.006c0 0.667-0.001 1.901-0.001 2.042l2.524 0.001c0-0.139-0.004-1.368-0.004-2.027l9.494 0.085-5.56 3.171c-0.265-0.459-0.448-0.775-0.631-1.093l-1.426 0.823c0.182 0.316 0.363 0.63 0.625 1.084l-1.565 0.891-1.026-1.778-1.426 0.824 1.021 1.768-4.567 2.586-1.493-2.586-1.427 0.823 1.488 2.577-2.531 1.436-7.583-0.135-0.03 1.64 4.807 0.09-2.731 1.551-4.07-0.528-0.212 1.631 1.909 0.254-2.188 1.238 0.814 1.432 2.54-1.441-0.871 2.202 1.526 0.602 1.633-4.112 2.53-1.436-1.759 3.475 1.462 0.754 2.885-5.697 2.692-1.53 1.389 2.406 1.427-0.823-1.384-2.396 4.562-2.596 0.873 1.512 1.426-0.824-0.868-1.502 0.58-0.335 0.985-0.556c0.17 0.294 0.506 0.877 0.544 0.942l1.426-0.824c-0.037-0.064-0.371-0.642-0.538-0.932l5.822-3.31-4.455 7.567c-0.858-0.495-1.442-0.831-2.033-1.172l-1.261 2.186c0.585 0.338 1.164 0.669 2.013 1.158l-0.37 0.632-0.737 1.25-3.215-1.859-1.261 2.186 3.195 1.845-3.496 5.936-4.627-2.679-1.261 2.186 4.607 2.665-1.888 3.207-10.213 4.248 0.967 2.333 7.102-2.96-1.102 1.892-1.142 1.952-5.896 1.667 0.697 2.438 3.333-0.948-1.844 3.131 2.173 1.281 2.124-3.61 1.087 4.013 2.435-0.658-1.727-6.394 2.08-3.534 1.072 6.291 2.493-0.425-1.583-9.241 2.018-3.422 4.316 2.49 1.261-2.185-4.296-2.478 3.496-5.935 2.762 1.6 1.27-2.191-2.751-1.581 1.107-1.882c0.578 0.333 1.646 0.95 1.768 1.02l1.261-2.186c-0.12-0.069-1.181-0.68-1.748-1.006l3.371-5.712 0.134 3.371 0.015 0.334c-0.53 0.024-0.895 0.039-1.261 0.056l0.074 1.643c0.363-0.016 0.726-0.026 1.251-0.05l0.074 1.796-2.051 0.093 0.074 1.644 2.036-0.098 0.207 5.256-2.978 0.134 0.069 1.634 2.978-0.134 0.03 0.908 0.081 2.007-3.604 6.67 1.439 0.779 2.293-4.24 0.13 3.146-0.009 0.005-2.336 3.377 1.35 0.932 1.1-1.586 0.097 2.518 1.639-0.059-0.116-2.925 1.568 1.795 1.229-1.077-2.896-3.348-0.115-2.901 2.28 3.159 1.334-0.96-3.734-5.172-0.117-3.102 2.776-0.132-0.078-1.629-2.767 0.127-0.207-5.256 1.742-0.08-0.069-1.634-1.732 0.075-0.073-1.796c0.338-0.015 1.009-0.052 1.084-0.055l-0.075-1.644c-0.073 0.004-0.74 0.035-1.074 0.05l-0.204-5.295 1.98 3.496 2.305 4.058c-0.859 0.496-1.443 0.833-2.035 1.174l1.263 2.187c0.586-0.338 1.165-0.672 2.015-1.163l1.074 1.903-3.224 1.861 1.263 2.187 3.204-1.85 0.771 1.355 2.614 4.639-4.63 2.674 1.262 2.187 4.612-2.663 1.842 3.235 0.006 0.009-1.443 10.963 2.509 0.326 0.993-7.635 2.194 3.868-1.503 5.939 2.463 0.619 0.845-3.366 1.789 3.164 2.198-1.244-2.058-3.629 4.009 1.058 0.645-2.44-6.393-1.697-2.024-3.572 5.987 2.223 0.876-2.37-8.789-3.255-1.959-3.458 4.317-2.493-1.263-2.187-4.298 2.482-3.385-5.995 2.758-1.592-1.263-2.187-2.738 1.581-1.074-1.903c0.574-0.331 1.638-0.946 1.759-1.016l-1.262-2.187c-0.12 0.069-1.177 0.68-1.74 1.005l-2.515-4.443-1.699-2.987 4.086 2.179c-0.247 0.468-0.417 0.789-0.588 1.113l1.443 0.764c0.17-0.323 0.341-0.645 0.587-1.112l1.596 0.853-0.963 1.824 1.458 0.768 0.954-1.818 4.188 2.248 0.442 0.239-1.401 2.647 1.458 0.768 1.391-2.641 0.402 0.212 2.17 1.168 3.921 6.484 1.41-0.852-2.49-4.115 0.549 0.291 2.206 1.186 1.734 3.728 1.493-0.685-0.818-1.746 2.231 1.184 0.773-1.448-2.571-1.38 2.325-0.43-0.304-1.625-4.334 0.816-0.009 0.006-2.557-1.377 3.869-0.37-0.148-1.639-6.343 0.607-2.75-1.468 1.294-2.458-1.448-0.774-1.294 2.458-4.625-2.477 0.807-1.543-1.448-0.774-0.813 1.534-1.59-0.844c0.159-0.302 0.473-0.899 0.507-0.965l-1.452-0.759c-0.034 0.065-0.341 0.653-0.494 0.945l-5.428-2.902 9.897 0.08c0 0.995 0.004 1.672 0.004 2.356l2.523 0.001c0-0.677-0.002-1.347-0.002-2.331l2.18 0.021 0.002 3.714 2.524 0.001-0.006-3.699 2.205 0.021 4.681 0.048v5.337l2.524 0.001-0.005-5.322 3.721 0.033 8.8 6.722 1.533-2.001-6.13-4.688 4.474 0.041 4.387 4.262 1.756-1.812-2.487-2.419 3.632 0.033 0.026-2.525-4.178-0.034 2.927-2.945-1.799-1.776-4.657 4.692-4.105-0.039 4.911-4.078-1.617-1.944-7.207 5.986-3.986-0.031 0.001-4.983-2.523-0.001-0.003 4.958-6.88-0.059 0.001-3.183-2.524-0.001 0.004 3.168-2.181-0.022c0-0.666 0.001-1.901 0.001-2.041l-2.524-0.001c0 0.139 0.004 1.367 0.004 2.026l-8.057-0.077 3.139-1.787c0.265 0.459 0.447 0.776 0.631 1.094l1.417-0.818c-0.182-0.316-0.363-0.629-0.626-1.084l1.575-0.897 1.026 1.778 1.417-0.818-1.021-1.768 4.571-2.601 1.499 2.596 1.411-0.828-1.488-2.577 0.038-0.022 2.502-1.419 7.569 0.131 0.029-1.64-4.806-0.09 2.73-1.551 4.08 0.523 0.202-1.626-1.903-0.245 2.183-1.247-0.809-1.423-2.55 1.447 0.876-2.217-1.527-0.602-1.617 4.116-2.55 1.447 1.773-3.496-1.466-0.738-2.885 5.697-2.687 1.539-1.394-2.416-1.427 0.824 1.389 2.406-4.561 2.595-0.878-1.521-1.427 0.823 0.873 1.512-1.565 0.891c-0.17-0.294-0.506-0.877-0.543-0.941l-1.417 0.817c0.037 0.065 0.371 0.643 0.538 0.932l-3.934 2.234 4.263-7.241c0.858 0.494 1.442 0.83 2.033 1.171l1.27-2.191c-0.584-0.337-1.164-0.668-2.012-1.158l1.107-1.882 3.215 1.859 1.261-2.186-3.195-1.845 3.486-5.93 4.637 2.673 1.261-2.186-4.607-2.665 1.888-3.207 10.213-4.248-0.976-2.328-7.103 2.96 2.253-3.849 0.01-0.006 5.872-1.665-0.692-2.428-3.323 0.942 1.844-3.1309-2.182-1.2759-2.121 3.5948-1.081-4.0026-2.445 0.6631 1.736 6.3885-2.08 3.534-1.076-6.3-2.488 0.434 1.577 9.232-0.196 0.341-1.822 3.081-4.31-2.482-1.27 2.192 4.295 2.477-0.366 0.617-3.12 5.313-2.771-1.595-1.261 2.186 2.741 1.587-1.103 1.866c-0.577-0.333-1.647-0.95-1.768-1.02l-1.265 2.201c0.121 0.069 1.181 0.68 1.748 1.007l-2.307 3.931-2.255 3.824 0.379-4.922c0.527 0.037 0.889 0.062 1.255 0.087l0.118-1.64c-0.361-0.025-0.72-0.047-1.24-0.083l0.128-1.798 2.05 0.147 0.118-1.64-2.035-0.143 0.399-5.238 2.989 0.214 0.118-1.64-2.974-0.21 0.224-2.906 4.355-6.204-1.346-0.947-2.759 3.939 0.245-3.134 2.722-3.08-1.236-1.087-1.281 1.449 0.193-2.52-1.63-0.123-0.234 2.911-1.332-1.957-1.357 0.923 2.493 3.658-0.224 2.906-1.907-3.413-1.428 0.799 3.104 5.574-0.242 3.094-2.777-0.198-0.108 1.635 2.761 0.193-0.408 5.244-1.744-0.122-0.108 1.635 1.734 0.127-0.143 1.794c-0.338-0.023-1.008-0.067-1.082-0.073l-0.118 1.641c0.074 0.005 0.739 0.055 1.072 0.078l-0.245 3.133-0.058 0.756-3.454-6.094c0.863-0.498 1.45-0.837 2.044-1.18l-1.263-2.187c-0.588 0.34-1.17 0.676-2.025 1.17l-1.073-1.904 3.223-1.861-1.263-2.187-3.204 1.851-3.385-5.995 4.631-2.674-1.263-2.187-4.612 2.663-0.94-1.651-0.902-1.584-0.005-0.009 1.442-10.962-2.508-0.327-0.993 7.635-2.195-3.868 1.503-5.9385-2.457-0.61-0.846 3.3665-1.794-3.1736-2.198 1.2435z" fill-rule="evenodd" stroke="#000" stroke-width=".70268" fill="url(#linearGradient11460)"/>
 <metadata>
  <rdf:RDF>
   <cc:Work>
    <dc:format>image/svg+xml</dc:format>
    <dc:type rdf:resource="http://purl.org/dc/dcmitype/StillImage"/>
    <cc:license rdf:resource="http://creativecommons.org/licenses/publicdomain/"/>
    <dc:publisher>
     <cc:Agent rdf:about="http://openclipart.org/">
      <dc:title>Openclipart</dc:title>
     </cc:Agent>
    </dc:publisher>
   </cc:Work>
   <cc:License rdf:about="http://creativecommons.org/licenses/publicdomain/">
    <cc:permits rdf:resource="http://creativecommons.org/ns#Reproduction"/>
    <cc:permits rdf:resource="http://creativecommons.org/ns#Distribution"/>
    <cc:permits rdf:resource="http://creativecommons.org/ns#DerivativeWorks"/>
   </cc:License>
  </rdf:RDF>
 </metadata>
</svg>
